<?xml version="1.0" encoding="UTF-8" standalone="no"?>
<svg
   width="24"
   height="24"
   viewBox="0 0 24 24"
   fill="none"
   version="1.1"
   id="svg24"
   sodipodi:docname="info.svg"
   inkscape:version="1.1 (c68e22c387, 2021-05-23)"
   xmlns:inkscape="http://www.inkscape.org/namespaces/inkscape"
   xmlns:sodipodi="http://sodipodi.sourceforge.net/DTD/sodipodi-0.dtd"
   xmlns="http://www.w3.org/2000/svg"
   xmlns:svg="http://www.w3.org/2000/svg">
  <defs
     id="defs28" />
  <sodipodi:namedview
     id="namedview26"
     pagecolor="#ffffff"
     bordercolor="#666666"
     borderopacity="1.0"
     inkscape:pageshadow="2"
     inkscape:pageopacity="0.0"
     inkscape:pagecheckerboard="0"
     showgrid="false"
     width="24px"
     inkscape:zoom="31.178571"
     inkscape:cx="0.54524628"
     inkscape:cy="8.5956472"
     inkscape:window-width="3840"
     inkscape:window-height="2066"
     inkscape:window-x="-11"
     inkscape:window-y="1634"
     inkscape:window-maximized="1"
     inkscape:current-layer="svg24" />
  <path
     d="m 12.000044,1.652141 c 5.682695,0 10.347814,4.6026594 10.347814,10.347902 0,5.714933 -4.62815,10.347814 -10.347814,10.347814 -5.7126211,0 -10.3479033,-4.625873 -10.3479033,-10.347814 0,-5.7106575 4.6279061,-10.347902 10.3479033,-10.347902 z m 0,-1.53302258 c -6.5611973,0 -11.88092589,5.32165578 -11.88092589,11.88092458 0,6.563089 5.31972859,11.880838 11.88092589,11.880838 6.561161,0 11.880838,-5.317749 11.880838,-11.880838 0,-6.5592688 -5.319677,-11.88092458 -11.880838,-11.88092458 z M 10.275384,16.599111 h 0.574892 v -5.748835 h -0.574892 c -0.3174663,0 -0.5748747,-0.257407 -0.5748747,-0.574892 V 9.892146 c 0,-0.3174844 0.2574084,-0.574892 0.5748747,-0.574892 h 2.299535 c 0.317484,0 0.574891,0.2574076 0.574891,0.574892 v 6.706965 h 0.574893 c 0.317467,0 0.574874,0.257407 0.574874,0.574875 v 0.383307 c 0,0.317468 -0.257407,0.57484 -0.574874,0.57484 h -3.449319 c -0.3174663,0 -0.5748747,-0.257372 -0.5748747,-0.57484 v -0.383307 c 0,-0.317468 0.2574084,-0.574875 0.5748747,-0.574875 z m 1.72466,-11.4976691 c -0.846667,0 -1.533023,0.686356 -1.533023,1.5330225 0,0.8466665 0.686356,1.5330226 1.533023,1.5330226 0.846666,0 1.533022,-0.6863561 1.533022,-1.5330226 0,-0.8466665 -0.686356,-1.5330225 -1.533022,-1.5330225 z"
     fill="#000000"
     id="path22"
     style="stroke-width:1.75203" />
</svg>
