<?xml version="1.0" encoding="UTF-8" standalone="no"?>
<svg
   width="24"
   height="24"
   viewBox="0 0 24 24"
   fill="none"
   version="1.1"
   id="svg174"
   sodipodi:docname="insights.svg"
   inkscape:version="1.1 (c68e22c387, 2021-05-23)"
   xmlns:inkscape="http://www.inkscape.org/namespaces/inkscape"
   xmlns:sodipodi="http://sodipodi.sourceforge.net/DTD/sodipodi-0.dtd"
   xmlns="http://www.w3.org/2000/svg"
   xmlns:svg="http://www.w3.org/2000/svg">
  <defs
     id="defs178" />
  <sodipodi:namedview
     id="namedview176"
     pagecolor="#ffffff"
     bordercolor="#666666"
     borderopacity="1.0"
     inkscape:pageshadow="2"
     inkscape:pageopacity="0.0"
     inkscape:pagecheckerboard="0"
     showgrid="false"
     width="24px"
     inkscape:zoom="31.178571"
     inkscape:rotation="105"
     inkscape:cx="25.648441"
     inkscape:cy="24.838042"
     inkscape:window-width="3840"
     inkscape:window-height="2066"
     inkscape:window-x="-11"
     inkscape:window-y="1634"
     inkscape:window-maximized="1"
     inkscape:current-layer="svg174" />
  <path
     d="M 0.2190591,3.9006027 V 20.099397 c 0,1.21999 0.988951,2.208927 2.2089263,2.208927 H 21.572015 c 1.219989,0 2.208926,-0.988937 2.208926,-2.208927 V 3.9006027 c 0,-1.2199754 -0.988937,-2.2089265 -2.208926,-2.2089265 H 2.4279854 c -1.2199753,0 -2.2089263,0.9889511 -2.2089263,2.2089265 z M 11.263691,3.1642938 V 11.263691 H 1.6916766 V 3.9006027 c 0,-0.4066707 0.3296381,-0.7363089 0.7363088,-0.7363089 z M 1.6916766,20.099397 v -7.363088 h 9.5720144 v 8.099398 H 2.4279854 c -0.4066707,0 -0.7363088,-0.329646 -0.7363088,-0.73631 z m 11.0446324,0.73631 v -8.099398 h 9.572014 v 7.363088 c 0,0.406664 -0.329645,0.73631 -0.736308,0.73631 z m 9.572014,-9.572016 H 12.736309 V 3.1642938 h 8.835706 c 0.406663,0 0.736308,0.3296382 0.736308,0.7363089 z"
     fill="white"
     id="path172"
     style="fill:#000000;stroke-width:0.736309" />
</svg>
