<?xml version="1.0" encoding="UTF-8" standalone="no"?>
<svg
   width="24"
   height="24"
   viewBox="0 0 24 24"
   fill="none"
   version="1.1"
   id="svg4"
   sodipodi:docname="leaf_new.svg"
   inkscape:version="1.1 (c68e22c387, 2021-05-23)"
   xmlns:inkscape="http://www.inkscape.org/namespaces/inkscape"
   xmlns:sodipodi="http://sodipodi.sourceforge.net/DTD/sodipodi-0.dtd"
   xmlns="http://www.w3.org/2000/svg"
   xmlns:svg="http://www.w3.org/2000/svg">
  <defs
     id="defs8" />
  <sodipodi:namedview
     id="namedview6"
     pagecolor="#ffffff"
     bordercolor="#666666"
     borderopacity="1.0"
     inkscape:pageshadow="2"
     inkscape:pageopacity="0.0"
     inkscape:pagecheckerboard="0"
     showgrid="false"
     width="36.23px"
     inkscape:zoom="27.28125"
     inkscape:cx="5.2050401"
     inkscape:cy="15.981672"
     inkscape:window-width="3840"
     inkscape:window-height="2066"
     inkscape:window-x="-11"
     inkscape:window-y="1634"
     inkscape:window-maximized="1"
     inkscape:current-layer="svg4" />
  <path
     d="M 22.287755,2.1863121 C 22.172237,1.9273214 21.94509,1.7998182 21.718007,1.7998182 c -0.211209,0 -0.42637,0.1115653 -0.557826,0.3386803 -1.235187,2.1476312 -3.446601,3.4864143 -5.972758,3.4864143 h -3.187578 c -4.2235421,0 -7.6501641,3.4266477 -7.6501641,7.6501882 0,0.832724 0.135472,1.629682 0.382509,2.378763 -3.0401594,2.601829 -4.15182512,5.645967 -4.17174752,5.697797 -0.1155495,0.33068 0.059767,0.697251 0.39047862,0.812833 0.3147709,0.111565 0.6932959,-0.04386 0.8128301,-0.390542 0.015938,-0.04781 0.9522891,-2.593861 3.4904048,-4.888918 1.29097,2.40267 3.825101,4.040257 6.7456891,4.040257 0.27496,0 0.545904,-0.01594 0.812832,-0.04386 6.25964,-0.45423 10.662451,-6.060353 10.662451,-12.9335695 0,-2.0002054 -0.430323,-4.0721316 -1.187373,-5.7615494 z m -9.61055,17.4281189 c -0.235052,0.02391 -0.462199,0.03583 -0.67736,0.03583 -2.5221401,0 -4.6857411,-1.482224 -5.7176941,-3.609933 2.063963,-1.530038 4.9447061,-2.765225 8.9052721,-2.765225 0.350634,0 0.637516,-0.286882 0.637516,-0.637515 0,-0.350634 -0.286882,-0.637516 -0.637516,-0.637516 -4.096038,0 -7.1322071,1.235187 -9.3555181,2.805069 -0.123519,-0.494074 -0.207193,-1.000071 -0.207193,-1.530038 0,-3.5143045 2.860827,-6.3751565 6.3751331,-6.3751565 h 3.187578 c 2.522204,0 4.821213,-1.1315907 6.363236,-3.0760137 0.418338,1.2869849 0.649438,2.7373337 0.649438,4.1239297 0,6.3592515 -3.988426,11.2641065 -9.522892,11.6665705 z"
     fill="#000000"
     id="path2"
     style="stroke-width:0.637516" />
</svg>
