<?xml version="1.0" encoding="UTF-8" standalone="no"?>
<svg
   width="24"
   height="24"
   viewBox="0 0 24 24"
   fill="none"
   version="1.1"
   id="svg113"
   sodipodi:docname="productivity.svg"
   inkscape:version="1.1 (c68e22c387, 2021-05-23)"
   xmlns:inkscape="http://www.inkscape.org/namespaces/inkscape"
   xmlns:sodipodi="http://sodipodi.sourceforge.net/DTD/sodipodi-0.dtd"
   xmlns="http://www.w3.org/2000/svg"
   xmlns:svg="http://www.w3.org/2000/svg">
  <defs
     id="defs117" />
  <sodipodi:namedview
     id="namedview115"
     pagecolor="#ffffff"
     bordercolor="#666666"
     borderopacity="1.0"
     inkscape:pageshadow="2"
     inkscape:pageopacity="0.0"
     inkscape:pagecheckerboard="0"
     showgrid="false"
     inkscape:zoom="27.28125"
     inkscape:cx="6.8545246"
     inkscape:cy="27.674685"
     inkscape:window-width="3840"
     inkscape:window-height="2066"
     inkscape:window-x="-11"
     inkscape:window-y="1634"
     inkscape:window-maximized="1"
     inkscape:current-layer="svg113"
     fit-margin-top="0"
     fit-margin-left="0"
     fit-margin-right="0"
     fit-margin-bottom="0" />
  <path
     d="m 23.246621,18.086377 -5.673575,-5.678172 c -0.711477,-0.711477 -1.646395,-1.067216 -2.581386,-1.067216 -0.702355,0 -1.404711,0.200674 -2.011254,0.606545 L 9.080928,8.0481277 V 4.700536 L 3.243166,0.32221498 0.32428531,3.2410955 4.7026064,9.0788568 h 3.3475914 l 3.8994052,3.8994802 c -0.939515,1.418356 -0.784376,3.342992 0.46527,4.592639 l 5.678098,5.678171 c 0.282767,0.282767 0.656749,0.428638 1.03073,0.428638 0.373981,0 0.747964,-0.141347 1.03073,-0.428638 l 3.096787,-3.096786 c 0.565533,-0.574655 0.565533,-1.495927 -0.0046,-2.065984 z M 7.6214866,7.5327626 v 0.086658 h -2.18916 L 2.253483,3.3779182 3.3799887,2.2514125 7.6214866,5.4302562 Z M 19.119178,22.21382 13.445603,16.535721 C 13.030538,16.120658 12.8025,15.573367 12.8025,14.989591 c 0,-0.583776 0.228038,-1.135592 0.643103,-1.546058 0.414992,-0.415065 0.962281,-0.643103 1.546057,-0.643103 0.583778,0 1.135591,0.228038 1.546132,0.643103 l 5.678098,5.673573 z M 3.243166,20.024659 c 0,0.401347 0.3283741,0.729721 0.7297202,0.729721 0.4013461,0 0.7297202,-0.328374 0.7297202,-0.729721 0,-0.401345 -0.3283741,-0.72972 -0.7297202,-0.72972 -0.4013461,0 -0.7297202,0.328375 -0.7297202,0.72972 z M 12.948444,3.3733574 c 1.035255,-1.0352905 2.398955,-1.5917022 3.82191,-1.5917022 0.314728,0 0.629383,0.027365 0.944038,0.082093 L 14.55383,5.0289095 15.183212,8.814333 18.973161,9.4437165 22.133797,6.2831163 C 22.439404,8.0252866 21.892114,9.785737 20.624224,11.049102 20.218282,11.454973 19.753085,11.778822 19.256,12.0297 l 1.076337,1.076263 c 0.474317,-0.282766 0.921272,-0.620261 1.322617,-1.026132 1.723964,-1.723964 2.403479,-4.1685271 1.810583,-6.535556 -0.104935,-0.4332721 -0.44243,-0.7753284 -0.87114,-0.8939079 -0.433235,-0.1185796 -0.898431,0 -1.217684,0.3192526 L 18.462428,7.8839399 16.446577,7.5464442 16.109082,5.5305926 19.023365,2.6162728 C 19.338093,2.301581 19.461196,1.8363843 19.342617,1.4076738 19.224038,0.97440236 18.877421,0.6414675 18.444113,0.53200948 16.086241,-0.05632733 13.641679,0.61866383 11.913191,2.3426276 11.324817,2.9309646 10.868741,3.6150772 10.540368,4.3493582 V 7.4415469 L 11.54833,8.4494733 C 11.110498,6.6069295 11.621236,4.700536 12.948444,3.3733574 Z M 5.2042891,21.62552 c -0.7570847,0.757085 -2.0797026,0.757085 -2.8367873,0 -0.7798883,-0.779925 -0.7798883,-2.056935 0,-2.836861 L 9.0307228,12.125438 8.0000662,11.094709 1.3367721,17.75793 c -1.34998238,1.349982 -1.34998238,3.548264 0,4.902845 0.6521874,0.65215 1.5232909,1.012485 2.4491234,1.012485 0.9258324,0 1.7969357,-0.360262 2.449123,-1.017011 l 4.6428445,-4.63832 C 10.572256,17.59834 10.339694,17.13774 10.170911,16.658826 Z"
     fill="white"
     id="path111"
     style="fill:#000000;stroke-width:0.729721" />
</svg>
