<?xml version="1.0" encoding="UTF-8" standalone="no"?>
<svg
   width="24"
   height="24"
   viewBox="0 0 24 24"
   fill="none"
   version="1.1"
   id="svg224"
   sodipodi:docname="safety.svg"
   inkscape:version="1.1 (c68e22c387, 2021-05-23)"
   xmlns:inkscape="http://www.inkscape.org/namespaces/inkscape"
   xmlns:sodipodi="http://sodipodi.sourceforge.net/DTD/sodipodi-0.dtd"
   xmlns="http://www.w3.org/2000/svg"
   xmlns:svg="http://www.w3.org/2000/svg">
  <defs
     id="defs228" />
  <sodipodi:namedview
     id="namedview226"
     pagecolor="#ffffff"
     bordercolor="#666666"
     borderopacity="1.0"
     inkscape:pageshadow="2"
     inkscape:pageopacity="0.0"
     inkscape:pagecheckerboard="0"
     showgrid="false"
     width="24px"
     inkscape:zoom="27.28125"
     inkscape:cx="1.1729668"
     inkscape:cy="15.981672"
     inkscape:window-width="3840"
     inkscape:window-height="2066"
     inkscape:window-x="-11"
     inkscape:window-y="1634"
     inkscape:window-maximized="1"
     inkscape:current-layer="svg224" />
  <path
     d="m 16.15945,16.456558 c -1.333252,0 -1.970613,0.742759 -4.15945,0.742759 -2.1888358,0 -2.826197,-0.742759 -4.1575922,-0.742759 -0.8194936,-2.23e-4 -1.6310171,0.160956 -2.3882004,0.4744 -0.7571832,0.313445 -1.4452084,0.77299 -2.0247608,1.352342 -0.57956,0.579426 -1.0392981,1.267295 -1.3529644,2.024389 -0.3136641,0.757095 -0.4751064,1.568557 -0.4751064,2.388044 0,0.315154 0.1252076,0.617456 0.3480782,0.840357 0.2228709,0.222828 0.5251462,0.348057 0.8403361,0.348057 H 21.21021 c 0.315153,0 0.617457,-0.125229 0.840357,-0.348057 0.222829,-0.222901 0.348057,-0.525203 0.348057,-0.840357 0,-1.654718 -0.657341,-3.241697 -1.827409,-4.411765 -1.170069,-1.170068 -2.757047,-1.82741 -4.411765,-1.82741 z M 3.0961781,22.398629 c 0.077121,-1.206686 0.6105924,-2.338873 1.4920912,-3.166603 0.881499,-0.827657 2.0449565,-1.288911 3.2541385,-1.289951 0.9200924,0 1.8067609,0.74276 4.1575922,0.74276 2.367544,0 3.231001,-0.74276 4.15945,-0.74276 1.208914,0.0014 2.371926,0.462814 3.253062,1.290471 0.881135,0.827729 1.414287,1.95962 1.491311,3.166083 z M 5.6865498,7.5434522 h 0.587708 C 6.1377833,8.0270619 6.0650524,8.5264932 6.0579293,9.02897 c 0,1.57591 0.6260343,3.08735 1.7403959,4.201713 C 8.9126789,14.344968 10.424088,14.97104 12,14.97104 c 1.575912,0 3.087352,-0.626072 4.201713,-1.740357 C 17.316,12.11632 17.942071,10.60488 17.942071,9.02897 17.934871,8.5264932 17.862231,8.0270619 17.725706,7.5434522 h 0.587746 c 0.09849,0 0.192968,-0.039129 0.262638,-0.1087821 0.06959,-0.069642 0.108737,-0.1641047 0.108737,-0.2626026 V 6.4293087 c 0,-0.0985 -0.03914,-0.1929609 -0.108737,-0.2626026 -0.06968,-0.069653 -0.164149,-0.108782 -0.262638,-0.108782 h -0.371381 c 0,-2.391684 -1.624785,-4.3850632 -3.82194,-4.9913402 C 14.013244,0.78765932 13.824512,0.54758702 13.57866,0.37790598 13.33288,0.20822493 13.041422,0.11687339 12.742759,0.11585255 H 11.257241 C 10.958578,0.11687355 10.66712,0.20822475 10.42134,0.37790598 10.175488,0.54758702 9.9867526,0.78765932 9.8798696,1.0665839 7.6827146,1.6728712 6.0579293,3.6662504 6.0579293,6.0579344 H 5.6865498 c -0.098498,0 -0.1929613,0.039129 -0.2626024,0.108782 C 5.3542984,6.2363584 5.31517,6.3308223 5.31517,6.429319 v 0.7427589 c 0,0.0985 0.039129,0.192962 0.1087774,0.2626025 0.06964,0.069653 0.1641052,0.1087821 0.2626024,0.1087821 z M 14.228277,2.6649148 c 0.660832,0.2880271 1.223472,0.7622862 1.619214,1.3648343 0.395669,0.6025559 0.607354,1.3073149 0.609063,2.0281853 H 14.228277 Z M 11.257241,1.6013806 h 1.485518 V 6.0579344 H 11.257241 Z M 7.5434473,6.0579344 C 7.5451706,5.337064 7.7568274,4.632305 8.1525395,4.0297491 8.5482516,3.427201 9.1108911,2.9529419 9.771724,2.6649148 v 3.3930196 z m 0.2785344,1.4855178 h 8.3560363 c 0.180417,0.4746971 0.274748,0.9776932 0.278536,1.4855178 0,1.181951 -0.469499,2.315476 -1.305325,3.151227 -0.835752,0.835828 -1.969277,1.305326 -3.151229,1.305326 -1.181952,0 -2.3154763,-0.469498 -3.1512577,-1.305326 C 8.0129748,11.344446 7.5434473,10.210921 7.5434473,9.02897 7.5472384,8.5211454 7.6415568,8.0181493 7.8219817,7.5434522 Z"
     fill="white"
     id="path222"
     style="fill:#000000;stroke-width:0.742759" />
</svg>
